<svg id="Capa_1" xmlns="http://www.w3.org/2000/svg" viewBox="0 0 374.49 292.8" fill="currentColor"><path d="M305.7 292.77h-64.93c-3.51 0-3.76-.23-3.76-3.78-.01-26.82-.01-53.63 0-80.45 0-3.74.22-3.94 3.89-3.94h129.86c3.6 0 3.63.03 3.64 3.5.01 2.03-.06 4.07.02 6.1.07 1.8-.78 2.54-2.49 2.49-.74-.02-1.48 0-2.22 0H253.17c-3.8 0-3.8.01-3.81 3.85-.01 5.92-.01 11.84 0 17.75 0 3.78.11 3.89 3.9 3.89h98.23c6.47 0 12.95.07 19.42-.06 2.55-.05 3.84.62 3.53 3.42-.19 1.74-.19 3.53 0 5.26.3 2.77-.96 3.52-3.54 3.51-15.54-.07-31.08-.04-46.62-.04-23.59 0-47.17 0-70.76.01q-4.18 0-4.19 4.05c0 6.2-.02 12.39-.01 18.59.01 3.63.12 3.73 3.7 3.73h116.82q4.54 0 4.55 4.57c0 1.48-.12 2.97.03 4.44.24 2.5-.88 3.14-3.24 3.13-21.83-.05-43.66-.02-65.48-.02ZM195.24.41h64.63c3.63 0 3.66.02 3.66 3.74v80.7c0 3.42-.24 3.65-3.59 3.67-1.57 0-3.15-.11-4.71.02-2.64.22-3.62-.87-3.6-3.52.09-9.34.07-18.67.03-28.01-.04-8.69 1.21-7.69-7.61-7.69-33.66-.02-67.31 0-100.97 0-4.4 0-4.42.02-4.42 4.51v31.06c0 3.28-.37 3.62-3.69 3.63-1.94 0-3.88 0-5.82-.02-1.55-.03-2.4-.78-2.35-2.41.03-1.02 0-2.03 0-3.05V4.27c0-3.86.02-3.87 3.8-3.87 21.54.01 43.09.02 64.63.01Zm-.05 36.12c17.76 0 35.52-.04 53.27.04 2.43 0 3.28-.81 3.25-3.2-.1-6.29-.12-12.58 0-18.86.04-2.36-.67-3.27-3.15-3.26-35.61.06-71.22.07-106.83 0-2.56 0-3.14 1.02-3.1 3.3.1 6.1.02 12.21.04 18.31 0 3.58.11 3.67 3.81 3.67 17.56.01 35.14 0 52.71 0ZM69.59 191.18H4.11c-3.82 0-4.1-.27-4.1-4.07v-80.16c0-3.62.25-3.87 3.96-3.87H133.8c4.01 0 4.14.1 4.1 3.96-.08 9.39 1.18 8.11-8.05 8.11-37.73.03-75.46 0-113.2.02q-4.53 0-4.54 4.65c-.01 18.49-.01 36.98-.01 55.48 0 3.46.34 3.79 3.79 3.79h107.37c3.5 0 3.63-.12 3.63-3.57v-18.86c0-3.39-.17-3.54-3.67-3.57-.65-.01-1.3-.05-1.94-.01-1.8.12-2.51-.82-2.51-2.5v-6.93c0-1.84.95-2.66 2.77-2.66 4.9.02 9.8.02 14.7 0 1.95 0 2.81.81 2.8 2.85-.05 14.79-.07 29.59 0 44.38 0 2.63-1.26 3.01-3.45 3.01-21.98-.07-43.99-.05-66-.05ZM0 44.28V4.61C0 .4.14.28 4.37.27h40.79c3.92 0 3.97.06 3.97 4.09 0 9.8.08 19.6-.05 29.4-.03 2.55.75 3.38 3.32 3.36 7.6-.08 6.7-.96 6.72 6.83.03 13.59.01 27.18.01 40.78 0 3.48-.3 3.78-3.8 3.79H3.72c-3.12 0-3.68-.55-3.68-3.74C0 71.28 0 57.78 0 44.28Zm29.48 32.2c4.99 0 9.99-.05 14.98.03 1.88.03 2.72-.66 2.71-2.57-.03-7.49-.02-14.98-.01-22.47 0-1.73-.76-2.49-2.53-2.48-9.99.03-19.98.03-29.96 0-2.01 0-2.75.85-2.72 2.86.08 7.3.06 14.61.01 21.91-.02 2.03.79 2.78 2.82 2.74 4.9-.07 9.8-.01 14.7-.01Zm7.59-51.83c0-3.33-.07-6.65.03-9.98.05-1.93-.79-2.67-2.62-2.67-6.56.02-13.12.03-19.68-.01-1.98-.01-2.84.83-2.82 2.83.05 6.56.05 13.12 0 19.68-.02 1.94.86 2.61 2.69 2.6 6.65-.04 13.31-.04 19.96 0 1.73 0 2.52-.66 2.47-2.47-.09-3.31-.03-6.64-.03-9.97ZM145.88 248.55v40.5c0 3.62-.11 3.72-3.74 3.72H84.15c-3.4 0-3.66-.24-3.66-3.58v-80.45c0-4.1.06-4.14 4.22-4.14 19.24 0 38.48.05 57.72-.05 2.71-.01 3.51.87 3.49 3.5-.1 13.5-.05 27-.05 40.5Zm-12.11.1v-28.01c0-3.88-.05-3.93-3.81-3.94-11.28-.01-22.56.07-33.84-.06-2.72-.03-3.55.91-3.54 3.52.06 19.04.05 38.08 0 57.13 0 2.44.74 3.45 3.35 3.42 11.46-.11 22.93-.12 34.39.01 2.71.03 3.53-.91 3.5-3.52-.09-9.51-.03-19.03-.03-28.55ZM246.33 165.99c0 7.3-.07 14.6.04 21.9.04 2.54-.88 3.54-3.42 3.33-1.84-.16-3.7-.14-5.54-.01-2.45.17-3.24-.93-3.23-3.27.06-10.63-.04-21.26.08-31.88.03-2.64-.76-3.6-3.47-3.57-9.7.12-19.41.1-29.12.01-2.41-.02-3.25.82-3.23 3.23.09 10.63.04 21.26.04 31.88 0 3.4-.16 3.55-3.65 3.57-1.66.01-3.34-.13-4.99.03-2.72.26-3.52-.9-3.5-3.53.1-14.42.05-28.83.05-43.25 0-12.66.06-25.32-.06-37.98-.03-2.68.86-3.56 3.5-3.54 14.33.08 28.66.07 42.98 0 2.48 0 3.43.77 3.4 3.36-.12 10.16-.05 20.33-.04 30.5 0 3.45.22 3.66 3.54 3.66 7.64 0 6.57-.56 6.63 6.72.03 6.27 0 12.55 0 18.84Zm-47.86-38.54c0 3.32.08 6.65-.03 9.97-.07 2.12.67 3.03 2.86 3 6.65-.07 13.3-.05 19.95 0 1.92 0 2.86-.62 2.84-2.73-.09-6.65-.07-13.3-.01-19.95.02-1.86-.65-2.73-2.56-2.72-6.84.04-13.67.05-20.51 0-1.94 0-2.6.88-2.56 2.72.07 3.23.02 6.47.02 9.7ZM160.22 248.67c0-13.59.06-27.19-.05-40.78-.02-2.56.79-3.35 3.34-3.34 14.98.1 29.97.1 44.95-.01 2.55-.02 3.29.96 3.16 3.26-.1 1.84.04 3.7-.03 5.55-.07 1.91.9 2.71 2.66 2.74 2.13.04 4.26.06 6.38.02 1.66-.04 2.27.68 2.27 2.34-.03 20.16-.04 40.32 0 60.47 0 1.92-.77 2.72-2.61 2.7-1.94-.02-3.89.11-5.82-.04-2.26-.17-2.97.92-2.9 2.95.06 1.66-.07 3.33.05 4.99.16 2.33-.65 3.3-3.15 3.28-15.08-.09-30.15-.08-45.23-.01-2.3.01-3.07-.8-3.06-3.08.08-13.67.04-27.35.04-41.04Zm50.56-.11c.01-9.61-.04-19.22.05-28.82.02-2.27-.7-3.09-3.02-3.07-10.81.09-21.62.08-32.43 0-2.27-.02-3.09.75-3.08 3.05.06 19.31.06 38.62 0 57.92 0 2.27.77 3.09 3.07 3.07 10.81-.08 21.62-.09 32.43.01 2.32.02 3.04-.8 3.02-3.06-.09-9.7-.04-19.4-.04-29.1ZM374.4 165.73c0 7.3-.09 14.61.05 21.91.05 2.62-.69 3.61-3.44 3.59-14.24-.11-28.48-.05-42.72-.06-3.32 0-3.6-.29-3.61-3.62-.01-4.9.07-9.8-.03-14.7-.05-2.29.59-3.47 3.14-3.24 2.11.19 4.26.14 6.37.01 1.99-.12 2.66.85 2.65 2.63 0 .09-.01.18 0 .28q.23 6.56 6.74 6.56c5.27 0 10.54-.06 15.81.03 2.11.04 3-.66 2.97-2.87-.09-6.93-.1-13.87 0-20.8.03-2.3-.85-3.09-3.1-3.08-10.45.07-20.9-.04-31.35.08-2.44.03-3.26-.79-3.24-3.18.07-14.33.08-28.66 0-42.99-.01-2.56.89-3.29 3.42-3.27 14.33.11 28.66.1 43 0 2.48-.02 3.48.62 3.4 3.26-.18 5.36-.13 10.72-.02 16.08.05 2.21-.81 2.98-2.94 2.86-2.21-.12-4.44-.09-6.66 0-1.8.07-2.54-.75-2.54-2.46.01-1.76-.04-3.51.01-5.27.05-1.63-.62-2.35-2.29-2.34-6.93.04-13.87.05-20.8 0-1.84-.02-2.44.82-2.43 2.52.03 6.66.05 13.31-.01 19.97-.02 2.07.83 2.71 2.83 2.7 10.26-.07 20.53-.03 30.79-.03 3.85 0 4 .15 4 4.09v21.35ZM0 248.41v-39.67c0-3.91.21-4.14 3.98-4.14h59.11c3.37 0 3.62.24 3.66 3.59.02 1.66-.09 3.34.03 4.99.19 2.63-.86 3.58-3.54 3.56-15.63-.09-31.26-.05-46.89-.05-3.97 0-3.98 0-3.98 3.97-.01 18.58-.02 37.17-.01 55.75 0 4.24.03 4.24 4.29 4.24h46.33c3.51 0 3.79.25 3.77 3.81-.07 9.86 1.19 8.22-8.11 8.26-18.31.08-36.62.02-54.94.02-3.41 0-3.66-.22-3.67-3.58-.02-13.59 0-27.18 0-40.78v.03ZM325.61 44.22c0-13.59.06-27.19-.05-40.78-.02-2.53.79-3.58 3.32-3.43 1.84.11 3.7.07 5.55 0 2.1-.07 2.95.79 2.93 2.97-.07 10.17-.02 20.34-.02 30.52 0 4.24.04 4.27 4.39 4.28 3.51 0 7.03-.11 10.54.04 2.6.11 3.57-.74 3.53-3.47-.14-10.17-.06-20.34-.05-30.51 0-3.42.37-3.77 3.83-3.78 1.76 0 3.52.02 5.27-.01 2.07-.04 2.94.81 2.92 3-.08 10.36.04 20.71-.09 31.07-.04 2.75.75 4.03 3.6 3.68 2.44-.3 3.17.85 3.16 3.24-.09 14.7-.09 29.41 0 44.11.02 2.53-.81 3.59-3.34 3.43-1.75-.11-3.52-.1-5.27 0-2.4.15-3.23-.85-3.21-3.26.1-10.45.04-20.9.04-31.35 0-4.16-.08-4.25-4.12-4.25h-17.48c-3.48 0-3.72.24-3.72 3.82 0 10.45.01 20.9 0 31.35 0 3.44-.21 3.64-3.58 3.66-1.66 0-3.33-.08-4.99.03-2.4.15-3.22-.87-3.2-3.27.09-13.72.04-27.4.04-41.09ZM274.72 44.23c0-13.31-.01-26.62 0-39.93 0-4.1.17-4.27 4.16-4.27 9.8-.01 19.6-.02 29.4 0 3.47.01 3.79.34 3.77 3.84-.06 9.57 1.03 7.96-8.07 8.07-4.71.06-9.43.08-14.14-.02-2.18-.05-3.18.57-3.17 2.96.07 19.41.07 38.82 0 58.23-.01 2.22.83 2.87 2.95 2.84 6.38-.1 12.76.03 19.14-.07 2.39-.04 3.4.88 3.31 3.25-.08 2.22-.04 4.44-.02 6.65.01 1.84-.89 2.73-2.71 2.73-10.63 0-21.26-.02-31.89 0-2.53 0-2.73-1.61-2.73-3.54.02-13.56.01-27.15 0-40.74ZM69.82 44.5V4c0-3.52.43-3.96 4.01-3.96 9.58-.01 8-.6 8.02 7.93.06 21.64.06 43.28-.03 64.92 0 2.75.74 3.71 3.59 3.66 9.15-.16 18.31-.06 27.47-.05 3.35 0 3.56.22 3.58 3.65 0 1.66-.1 3.34.03 4.99.2 2.54-.9 3.45-3.39 3.43-8.69-.08-17.39-.04-26.08-.04H73.98c-3.78 0-4.15-.37-4.15-4.08-.01-13.32-.01-26.63-.01-39.95ZM262.76 147.15v-40.49c0-3.54.06-3.58 3.55-3.6 1.94 0 3.89.09 5.82-.03 2.11-.13 2.84.86 2.75 2.8-.04.92-.02 1.85-.02 2.77v66.56c0 3.81.09 3.91 3.84 3.91 8.88 0 17.75.06 26.63-.04 2.29-.02 3.2.74 3.04 3.05-.14 2.12-.1 4.25-.01 6.38.08 1.86-.61 2.73-2.54 2.73-13.5-.02-27-.03-40.5.02-2.45.01-2.59-1.47-2.59-3.29.04-13.59.03-27.18.03-40.77ZM168.5 146.86v40.74c0 3.44-.12 3.55-3.63 3.57-2.03.01-4.11.24-6.08-.11-.9-.16-1.69-1.42-2.35-2.32-.26-.36-.04-1.08-.04-1.63v-80.38c0-3.64.16-3.79 3.68-3.8 1.76 0 3.52.1 5.27-.03 2.41-.18 3.21.79 3.2 3.21-.1 13.59-.06 27.17-.05 40.75Z"/></svg>