<svg version="1.1" id="Layer_1" xmlns="http://www.w3.org/2000/svg" x="0" y="0" viewBox="0 0 1095.82 474.51" xml:space="preserve" fill="currentColor"><path d="M142.57 31.29h17.75l-31.57 93.34h-13.41L100.58 71.4l-14.49 53.24H72.53L41.11 31.29h17.75l20.59 65.3 14.63-52.43h13.14l14.63 52.7 20.72-65.57zM178.25 78.03c0-26.41 20.73-48.36 47.42-48.36 26.55 0 47.42 21.95 47.42 48.36 0 26.42-20.86 48.23-47.42 48.23-26.69.01-47.42-21.81-47.42-48.23zm78.31 0c0-17.88-13.14-32.91-31.02-32.91-17.75 0-30.62 15.03-30.62 32.91 0 17.89 12.87 32.79 30.62 32.79 17.88 0 31.02-14.9 31.02-32.79zM409.82 124.64h-16.53l-7.45-62.72-25.2 52.15h-13.41L321.9 62.05l-7.59 62.59h-16.53l11.38-93.34h14.36l30.35 64.22 30.21-64.22h14.36l11.38 93.34zM457.15 109.87h42.27v14.76h-58.66V31.29h57.3v14.77h-40.91v25.19h35.76V86.3h-35.76v23.57zM582.49 31.29h16.53v93.34h-15.04l-37.26-62.86v62.86H530.2V31.29h15.58l36.71 62.32V31.29zM768.42 31.29h17.74l-31.56 93.34h-13.41L726.42 71.4l-14.49 53.24h-13.54L666.96 31.3h17.75l20.59 65.3 14.63-52.43h13.14l14.63 52.7 20.72-65.58zM867.09 31.29h16.53v93.34h-16.53V85.62h-38.75v39.02h-16.53V31.29h16.53v39.56h38.75V31.29zM913.6 78.03c0-26.41 20.73-48.36 47.42-48.36 26.55 0 47.42 21.95 47.42 48.36 0 26.42-20.86 48.23-47.42 48.23-26.69.01-47.42-21.81-47.42-48.23zm78.3 0c0-17.88-13.14-32.91-31.02-32.91-17.75 0-30.62 15.03-30.62 32.91 0 17.89 12.87 32.79 30.62 32.79 17.88 0 31.02-14.9 31.02-32.79zM40.92 316.55c0-70.48 56.38-129.02 126.49-129.02 40.84 0 76.62 19.15 99.02 48.43l-33.25 25.3c-15.18-19.88-37.58-32.53-64.69-32.53-47.34 0-83.12 40.12-83.12 87.82S120.43 404 168.5 404c27.11 0 49.51-12.65 64.69-32.52l33.25 25.3c-22.41 29.27-58.18 48.43-99.02 48.43-70.12-.01-126.5-58.2-126.5-128.66zM288.85 316.55c0-70.48 55.29-129.02 126.49-129.02 70.83 0 126.49 58.54 126.49 129.02 0 70.47-55.66 128.65-126.49 128.65-71.2 0-126.49-58.19-126.49-128.65zm208.88 0c0-47.7-35.05-87.82-82.76-87.82-47.34 0-81.67 40.12-81.67 87.82S367.63 404 414.97 404c47.71 0 82.76-39.75 82.76-87.45zM687.1 191.87c71.19 0 112.76 54.21 112.76 125.04 0 70.48-41.56 123.96-112.76 123.96h-97.57v-249h97.57zm0 209.6c45.17 0 68.3-38.31 68.3-84.57 0-46.61-23.13-85.65-68.3-85.65h-53.48v170.22h53.48zM892.73 401.47h112.75v39.39H849v-249h152.87v39.39H892.73v67.22h95.41v40.11h-95.41v62.89zM1080.83 422.22c0 15.15-12.04 27.41-27.19 27.41-15.14 0-27.1-12.27-27.1-27.41s11.96-27.5 27.1-27.5c15.15 0 27.19 12.35 27.19 27.5zm-4.82 0c0-12.51-9.94-22.68-22.37-22.68-12.5 0-22.37 10.17-22.37 22.68 0 12.5 9.86 22.6 22.37 22.6 12.43-.01 22.37-10.1 22.37-22.6zm-18.1 4.19 6.76 9.39h-6.29l-6.45-9.09h-1.87v9.09h-5.67v-26.72h10.64c6.06 0 8.93 4.2 8.93 8.62.01 5.13-2.24 7.78-6.05 8.71zm-7.84-12.12v7.69h4.27c2.87 0 4.04-2.18 4.04-3.88s-1.17-3.8-3.88-3.8h-4.43z"/></svg>