<svg xmlns="http://www.w3.org/2000/svg" viewBox="0 0 704.1 245.8" xml:space="preserve" fill="currentColor"><g id="TM"><path d="M497.5 112.2c-2-1-3.6-2.5-4.7-4.4-1.1-1.9-1.7-4.1-1.7-6.6V87.1c0-2.5.6-4.7 1.7-6.5 1.1-1.9 2.7-3.3 4.7-4.4 2-1 4.3-1.6 7-1.6 2.6 0 4.9.5 6.9 1.5s3.6 2.4 4.7 4.2c1.1 1.8 1.7 3.9 1.7 6.3v.1c0 .2-.1.3-.2.4-.1.1-.2.2-.4.2l-4.2.2c-.4 0-.5-.2-.5-.5v-.2c0-2.3-.7-4.2-2.2-5.6-1.5-1.4-3.4-2.1-5.8-2.1s-4.4.7-5.9 2.1c-1.5 1.4-2.2 3.3-2.2 5.6v14.5c0 2.3.7 4.2 2.2 5.6 1.5 1.4 3.4 2.1 5.9 2.1 2.4 0 4.4-.7 5.8-2.1 1.5-1.4 2.2-3.3 2.2-5.6v-.1c0-.3.2-.5.5-.5l4.2.2c.4 0 .5.2.5.5 0 2.4-.6 4.5-1.7 6.4-1.1 1.8-2.7 3.3-4.7 4.3s-4.3 1.5-6.9 1.5c-2.5.2-4.9-.3-6.9-1.4zM538 107.8c1.4-1 2.1-2.3 2.1-3.9v-3.2c0-.2-.1-.2-.2-.2h-5.1c-2.2 0-3.9.4-5.1 1.3-1.3.8-1.9 2-1.9 3.5 0 1.3.5 2.4 1.4 3.1 1 .7 2.2 1 3.8 1 1.8-.1 3.5-.6 5-1.6zm2.2-21.6c1.7.8 2.9 1.9 3.8 3.3.9 1.4 1.3 3 1.3 4.8v18.5c0 .4-.2.5-.5.5h-4.2c-.4 0-.5-.2-.5-.5v-2c0-.2-.1-.2-.3-.1-.9 1-2.1 1.7-3.5 2.3-1.4.5-2.9.8-4.6.8-2.7 0-4.9-.7-6.7-2.1-1.8-1.4-2.7-3.4-2.7-6.2 0-2.8 1-5.1 3-6.7 2-1.6 4.8-2.4 8.3-2.4h6.1c.1 0 .2-.1.2-.2v-1.5c0-1.6-.5-2.9-1.4-3.7-.9-.9-2.3-1.3-4.2-1.3-1.5 0-2.8.3-3.7.9-1 .6-1.6 1.4-1.8 2.4-.1.4-.3.5-.7.5l-4.4-.6c-.4-.1-.5-.2-.5-.4.3-2.2 1.4-3.9 3.4-5.3s4.5-2.1 7.5-2.1c2.5-.1 4.4.3 6.1 1.1zM571.4 87.7c1.8 1.7 2.6 4.1 2.6 7v18c0 .4-.2.5-.5.5h-4.2c-.4 0-.5-.2-.5-.5v-17c0-1.8-.5-3.3-1.6-4.4-1.1-1.1-2.5-1.7-4.2-1.7-1.8 0-3.1.6-4.2 1.7s-1.6 2.6-1.6 4.4v17.1c0 .4-.2.5-.5.5h-4.2c-.4 0-.5-.2-.5-.5V86c0-.4.2-.5.5-.5h4.2c.4 0 .5.2.5.5v2c0 .1 0 .1.1.2.1 0 .1 0 .1-.1 1.6-2 3.9-3 6.9-3 3.1 0 5.4.9 7.1 2.6zM584.7 111.6c-2-1.4-3.3-3.3-4-5.7-.5-1.7-.8-3.9-.8-6.6 0-2.5.3-4.7.8-6.6.7-2.3 2.1-4.2 4.1-5.6 2-1.4 4.3-2.1 7.1-2.1 2.7 0 5.1.7 7.2 2.1 2 1.4 3.4 3.1 4 5.2.2.6.4 1.2.4 1.8 0 .3-.2.5-.5.5l-4.1.6h-.1c-.3 0-.4-.2-.5-.5l-.2-.9c-.3-1.2-1-2.3-2.1-3.1-1.1-.8-2.5-1.3-4.1-1.3-1.6 0-2.9.4-4 1.3-1.1.8-1.8 2-2.1 3.3-.3 1.3-.5 3-.5 5.2 0 2.1.2 3.8.5 5.1.4 1.5 1.1 2.6 2.2 3.4 1.1.8 2.4 1.3 4 1.3s3-.4 4.1-1.3c1.1-.8 1.9-1.9 2.2-3.3 0 0 .1-.1 0-.1V104c.1-.3.3-.4.6-.3l4.1.7c.3.1.4.2.4.4v.2c0 .3-.1.7-.3 1.2-.6 2.2-2 4-4 5.4-2 1.3-4.4 2-7.2 2-2.8.1-5.2-.6-7.2-2zM615.7 90.8c-1 .8-1.7 1.8-2.1 3.1-.3.8-.4 1.8-.5 3.1 0 .1.1.2.2.2h12.5c.1 0 .2-.1.2-.2-.1-1.2-.2-2.1-.3-2.7-.4-1.4-1.1-2.6-2.2-3.4-1.1-.9-2.4-1.3-4-1.3s-2.8.4-3.8 1.2zm15.6 10.2c0 .4-.2.5-.5.5h-17.4c-.2 0-.2.1-.2.2 0 1.2.1 2.2.3 2.8.4 1.5 1.2 2.6 2.4 3.4 1.2.8 2.8 1.2 4.6 1.2 2.7 0 4.8-1.1 6.2-3.3.2-.4.4-.4.7-.2l3.1 2.1c.3.2.3.5.2.7-1 1.6-2.5 2.9-4.3 3.9-1.9.9-4 1.4-6.4 1.4-2.7 0-4.9-.6-6.7-1.8-1.8-1.2-3.2-2.8-4.1-5-.9-2.2-1.3-4.8-1.3-7.8 0-2.7.2-4.7.6-6.1.7-2.5 2-4.5 3.9-6 2-1.5 4.4-2.2 7.2-2.2 3.7 0 6.4.9 8.3 2.8 1.8 1.8 2.9 4.5 3.3 8.1.1 1.7.1 3.4.1 5.3zM652.5 85.9c.3.1.3.3.3.7l-.9 4.1c0 .3-.3.4-.7.3-.6-.3-1.3-.4-2.2-.4l-.8.1c-1.7.1-3.1.7-4.2 1.8s-1.7 2.6-1.7 4.3v16c0 .4-.2.5-.5.5h-4.2c-.4 0-.5-.2-.5-.5V86c0-.4.2-.5.5-.5h4.2c.4 0 .5.2.5.5v2.9c0 .1 0 .2.1.2s.1 0 .1-.1c1.6-2.6 3.9-3.8 6.7-3.8 1.3 0 2.3.3 3.3.7zM497.4 144.6v12.2c0 .1.1.2.2.2h9.1c1.9 0 3.5-.6 4.6-1.7s1.8-2.7 1.8-4.6c0-1.9-.6-3.5-1.8-4.6s-2.7-1.8-4.6-1.8h-9.1c-.1.1-.2.2-.2.3m16 33.2-7.7-16.3c0-.1-.1-.2-.2-.2h-7.9c-.2 0-.2.1-.2.2v16.1c0 .4-.2.5-.5.5h-4.2c-.4 0-.5-.2-.5-.5v-37.2c0-.4.2-.5.5-.5h14.7c2.2 0 4.1.5 5.8 1.4 1.7.9 2.9 2.2 3.9 3.8.9 1.6 1.4 3.5 1.4 5.7 0 2.5-.7 4.7-2 6.5-1.3 1.8-3.2 3-5.6 3.6-.1.1-.2.2-.1.3l7.9 16.4v.3c0 .3-.1.4-.4.4H514c-.3-.2-.5-.3-.6-.5zM530.2 155.6c-1 .8-1.7 1.8-2.1 3.1-.3.8-.4 1.8-.5 3.1 0 .1.1.2.2.2h12.5c.1 0 .2-.1.2-.2-.1-1.2-.2-2.1-.3-2.7-.4-1.4-1.1-2.6-2.2-3.4-1.1-.9-2.4-1.3-4-1.3-1.5 0-2.8.4-3.8 1.2zm15.6 10.2c0 .4-.2.5-.5.5h-17.4c-.2 0-.2.1-.2.2 0 1.2.1 2.2.3 2.8.4 1.5 1.2 2.6 2.4 3.4 1.2.8 2.8 1.2 4.6 1.2 2.7 0 4.8-1.1 6.2-3.3.2-.4.4-.4.7-.2l3.1 2.1c.3.2.3.5.2.7-1 1.6-2.5 2.9-4.3 3.9-1.9.9-4 1.4-6.4 1.4-2.7 0-4.9-.6-6.7-1.8-1.8-1.2-3.2-2.8-4.1-5-.9-2.2-1.3-4.8-1.3-7.8 0-2.7.2-4.7.6-6.1.7-2.5 2-4.5 3.9-6 2-1.5 4.4-2.2 7.2-2.2 3.7 0 6.4.9 8.3 2.8 1.8 1.8 2.9 4.5 3.3 8.1.1 1.7.1 3.4.1 5.3zM555.4 177.5c-1.7-.7-2.9-1.6-3.9-2.7-.9-1.1-1.4-2.4-1.4-3.8v-.6c0-.4.2-.5.5-.5h3.9c.4 0 .5.2.5.5v.3c0 1 .6 1.9 1.7 2.7 1.1.8 2.5 1.1 4.2 1.1 1.7 0 3-.4 4-1.1 1-.7 1.5-1.6 1.5-2.7s-.5-1.9-1.4-2.4c-.9-.5-2.5-1.1-4.6-1.7-2.1-.6-3.8-1.2-5.2-1.8-1.4-.6-2.6-1.5-3.6-2.6s-1.4-2.5-1.4-4.3c0-2.4 1-4.4 2.9-5.8 1.9-1.4 4.5-2.2 7.6-2.2 2.1 0 4 .3 5.6 1 1.6.7 2.9 1.6 3.7 2.8.9 1.2 1.3 2.5 1.3 4v.2c0 .4-.2.5-.5.5H567c-.4 0-.5-.2-.5-.5v-.2c0-1.1-.5-1.9-1.6-2.7-1-.7-2.5-1.1-4.2-1.1-1.6 0-2.9.3-3.9.9-1 .6-1.5 1.5-1.5 2.5 0 1.1.5 1.9 1.4 2.4 1 .5 2.5 1.1 4.7 1.8 2.1.6 3.9 1.2 5.3 1.7 1.4.6 2.6 1.4 3.6 2.5s1.5 2.6 1.5 4.3c0 2.5-1 4.4-2.9 5.9-2 1.5-4.5 2.2-7.8 2.2-2.1.4-4 0-5.7-.6zM584.2 155.6c-1 .8-1.7 1.8-2.1 3.1-.3.8-.4 1.8-.5 3.1 0 .1.1.2.2.2h12.5c.1 0 .2-.1.2-.2-.1-1.2-.2-2.1-.3-2.7-.4-1.4-1.1-2.6-2.2-3.4-1.1-.9-2.4-1.3-4-1.3-1.5 0-2.8.4-3.8 1.2zm15.6 10.2c0 .4-.2.5-.5.5h-17.4c-.2 0-.2.1-.2.2 0 1.2.1 2.2.3 2.8.4 1.5 1.2 2.6 2.4 3.4 1.2.8 2.8 1.2 4.6 1.2 2.7 0 4.8-1.1 6.2-3.3.2-.4.4-.4.7-.2l3.1 2.1c.3.2.3.5.2.7-1 1.6-2.5 2.9-4.3 3.9-1.9.9-4 1.4-6.4 1.4-2.7 0-4.9-.6-6.7-1.8-1.8-1.2-3.2-2.8-4.1-5-.9-2.2-1.3-4.8-1.3-7.8 0-2.7.2-4.7.6-6.1.7-2.5 2-4.5 3.9-6 2-1.5 4.4-2.2 7.2-2.2 3.7 0 6.4.9 8.3 2.8 1.8 1.8 2.9 4.5 3.3 8.1.1 1.7.2 3.4.1 5.3zM619.5 172.6c1.4-1 2.1-2.3 2.1-3.9v-3.2c0-.2-.1-.2-.2-.2h-5.1c-2.2 0-3.9.4-5.1 1.3-1.3.8-1.9 2-1.9 3.5 0 1.3.5 2.4 1.4 3.1 1 .7 2.2 1 3.8 1 1.9-.1 3.6-.6 5-1.6zm2.2-21.6c1.7.8 2.9 1.9 3.8 3.3.9 1.4 1.3 3 1.3 4.8v18.5c0 .4-.2.5-.5.5h-4.2c-.4 0-.5-.2-.5-.5v-2c0-.2-.1-.2-.3-.1-.9 1-2.1 1.7-3.5 2.3-1.4.5-2.9.8-4.6.8-2.7 0-4.9-.7-6.7-2.1-1.8-1.4-2.7-3.4-2.7-6.2s1-5.1 3-6.7c2-1.6 4.8-2.4 8.3-2.4h6.1c.1 0 .2-.1.2-.2v-1.5c0-1.6-.5-2.9-1.4-3.7-.9-.9-2.3-1.3-4.2-1.3-1.5 0-2.8.3-3.7.9-1 .6-1.6 1.4-1.8 2.4-.1.4-.3.5-.7.5l-4.4-.6c-.4-.1-.5-.2-.5-.4.3-2.2 1.4-3.9 3.4-5.3s4.5-2.1 7.5-2.1c2.5 0 4.5.3 6.1 1.1zM648.8 150.7c.3.1.3.3.3.7l-.9 4.1c0 .3-.3.4-.7.3-.6-.3-1.3-.4-2.2-.4h-.8c-1.7.1-3.1.7-4.2 1.8s-1.7 2.6-1.7 4.3v16c0 .4-.2.5-.5.5H634c-.4 0-.5-.2-.5-.5v-26.7c0-.4.2-.5.5-.5h4.2c.4 0 .5.2.5.5v2.9c0 .1 0 .2.1.2s.1 0 .1-.1c1.6-2.5 3.9-3.8 6.7-3.8 1.2 0 2.3.3 3.2.7zM656.8 176.5c-2-1.4-3.3-3.3-4-5.7-.5-1.7-.8-3.9-.8-6.6 0-2.5.3-4.7.8-6.6.7-2.3 2.1-4.2 4.1-5.6 2-1.4 4.3-2.1 7.1-2.1 2.7 0 5.1.7 7.2 2.1 2 1.4 3.4 3.1 4 5.2.2.6.4 1.2.4 1.8 0 .3-.2.5-.5.5l-4.1.6h-.1c-.3 0-.4-.2-.5-.5l-.2-.9c-.3-1.2-1-2.3-2.1-3.1-1.1-.8-2.5-1.3-4.1-1.3-1.6 0-2.9.4-4 1.3-1.1.8-1.8 2-2.1 3.3-.3 1.3-.5 3-.5 5.2s.2 3.8.5 5.1c.4 1.5 1.1 2.6 2.2 3.4 1.1.8 2.4 1.3 4 1.3s3-.4 4.1-1.3c1.1-.8 1.9-1.9 2.2-3.3 0 0 .1-.1 0-.1v-.2c.1-.3.3-.4.6-.3l4.1.7c.3.1.4.2.4.4v.2c0 .3-.1.7-.3 1.2-.6 2.2-2 4-4 5.4-2 1.3-4.4 2-7.2 2s-5.2-.7-7.2-2.1zM700.2 152.5c1.8 1.7 2.6 4.1 2.6 7v18c0 .4-.2.5-.5.5h-4.2c-.4 0-.5-.2-.5-.5v-17c0-1.8-.5-3.3-1.6-4.4-1.1-1.1-2.5-1.7-4.2-1.7-1.8 0-3.1.6-4.2 1.7s-1.6 2.6-1.6 4.4v17.1c0 .4-.2.5-.5.5h-4.2c-.4 0-.5-.2-.5-.5v-37.2c0-.4.2-.5.5-.5h4.2c.4 0 .5.2.5.5v12.4c0 .1 0 .1.1.2.1 0 .1 0 .1-.1 1.6-2 3.9-3 6.9-3 3 0 5.3.9 7.1 2.6zM492.2 242.4v-37.2c0-.4.2-.5.5-.5h4.2c.4 0 .5.2.5.5v37.2c0 .4-.2.5-.5.5h-4.2c-.4.1-.5-.1-.5-.5M524 217.4c1.8 1.7 2.6 4.1 2.6 7v18c0 .4-.2.5-.5.5h-4.2c-.4 0-.5-.2-.5-.5v-17c0-1.8-.5-3.3-1.6-4.4-1.1-1.1-2.5-1.7-4.2-1.7s-3.1.6-4.2 1.7-1.6 2.6-1.6 4.4v17.1c0 .4-.2.5-.5.5H505c-.4 0-.5-.2-.5-.5v-26.7c0-.4.2-.5.5-.5h4.2c.4 0 .5.2.5.5v2c0 .1 0 .1.1.2h.1c1.6-2 3.9-3 6.9-3 3.1-.2 5.4.6 7.2 2.4zM537.3 242.3c-1.7-.7-2.9-1.6-3.9-2.7-.9-1.1-1.4-2.4-1.4-3.8v-.6c0-.4.2-.5.5-.5h3.9c.4 0 .5.2.5.5v.3c0 1 .6 1.9 1.7 2.7 1.1.8 2.5 1.1 4.2 1.1 1.7 0 3-.4 4-1.1 1-.7 1.5-1.6 1.5-2.7s-.5-1.9-1.4-2.4c-.9-.5-2.5-1.1-4.6-1.7-2.1-.6-3.8-1.2-5.2-1.8-1.4-.6-2.6-1.5-3.6-2.6s-1.4-2.5-1.4-4.3c0-2.4 1-4.4 2.9-5.8 1.9-1.4 4.5-2.2 7.6-2.2 2.1 0 4 .3 5.6 1 1.6.7 2.9 1.6 3.7 2.8.9 1.2 1.3 2.5 1.3 4v.2c0 .4-.2.5-.5.5h-3.8c-.4 0-.5-.2-.5-.5v-.2c0-1.1-.5-1.9-1.6-2.7-1-.7-2.5-1.1-4.2-1.1-1.6 0-2.9.3-3.9.9-1 .6-1.5 1.5-1.5 2.5 0 1.1.5 1.9 1.4 2.4 1 .5 2.5 1.1 4.7 1.8 2.1.6 3.9 1.2 5.3 1.7 1.4.6 2.6 1.4 3.6 2.5s1.5 2.6 1.5 4.3c0 2.5-1 4.4-2.9 5.9-2 1.5-4.5 2.2-7.8 2.2-2.1.4-4 .1-5.7-.6zM572.6 219.5h-5.9c-.2 0-.2.1-.2.2v14.5c0 1.5.3 2.6 1 3.3.7.7 1.8 1 3.2 1h1.6c.4 0 .5.2.5.5v3.4c0 .4-.2.5-.5.5-1.2.1-2 .1-2.5.1-2.8 0-4.9-.5-6.3-1.5-1.4-1-2.1-2.9-2.1-5.6v-16.3c0-.2-.1-.2-.2-.2h-3.3c-.4 0-.5-.2-.5-.5v-3.2c0-.4.2-.5.5-.5h3.3c.1 0 .2-.1.2-.2v-6.5c0-.4.2-.5.5-.5h3.9c.4 0 .5.2.5.5v6.5c0 .1.1.2.2.2h5.9c.4 0 .5.2.5.5v3.2c.3.4.1.6-.3.6zM578.5 242.4v-26.7c0-.4.2-.5.5-.5h4.2c.4 0 .5.2.5.5v26.7c0 .4-.2.5-.5.5H579c-.4 0-.5-.2-.5-.5m.2-32.6c-.7-.7-1-1.5-1-2.5s.3-1.9 1-2.5c.7-.6 1.5-1 2.5-1s1.9.3 2.5 1c.6.7 1 1.5 1 2.5s-.3 1.9-1 2.5c-.7.6-1.5 1-2.5 1s-1.9-.4-2.5-1M604 219.5h-5.9c-.2 0-.2.1-.2.2v14.5c0 1.5.3 2.6 1 3.3.7.7 1.8 1 3.2 1h1.6c.4 0 .5.2.5.5v3.4c0 .4-.2.5-.5.5-1.2.1-2 .1-2.5.1-2.8 0-4.9-.5-6.3-1.5-1.4-1-2.1-2.9-2.1-5.6v-16.3c0-.2-.1-.2-.2-.2h-3.3c-.4 0-.5-.2-.5-.5v-3.2c0-.4.2-.5.5-.5h3.3c.1 0 .2-.1.2-.2v-6.5c0-.4.2-.5.5-.5h3.9c.4 0 .5.2.5.5v6.5c0 .1.1.2.2.2h5.9c.4 0 .5.2.5.5v3.2c.2.4.1.6-.3.6zM627 215.1h4.1c.4 0 .5.2.5.5v26.7c0 .4-.2.5-.5.5H627c-.4 0-.5-.2-.5-.5v-2c0-.1 0-.1-.1-.1 0 0-.1 0-.2.1-1.5 2-3.7 3-6.7 3-1.8 0-3.4-.3-5-1-1.5-.7-2.7-1.7-3.6-3.1-.9-1.3-1.4-3-1.4-4.9v-18.6c0-.4.2-.5.5-.5h4.1c.4 0 .5.2.5.5v17c0 1.9.5 3.4 1.5 4.5s2.4 1.6 4.2 1.6c1.8 0 3.3-.6 4.4-1.7 1.1-1.1 1.6-2.6 1.6-4.5v-17c.1-.3.3-.4.7-.5zM651.6 219.5h-5.9c-.2 0-.2.1-.2.2v14.5c0 1.5.3 2.6 1 3.3.7.7 1.8 1 3.2 1h1.6c.4 0 .5.2.5.5v3.4c0 .4-.2.5-.5.5-1.2.1-2 .1-2.5.1-2.8 0-4.9-.5-6.3-1.5-1.4-1-2.1-2.9-2.1-5.6v-16.3c0-.2-.1-.2-.2-.2h-3.3c-.4 0-.5-.2-.5-.5v-3.2c0-.4.2-.5.5-.5h3.3c.1 0 .2-.1.2-.2v-6.5c0-.4.2-.5.5-.5h3.9c.4 0 .5.2.5.5v6.5c0 .1.1.2.2.2h5.9c.4 0 .5.2.5.5v3.2c.2.4.1.6-.3.6zM663.8 220.4c-1 .8-1.7 1.8-2.1 3.1-.3.8-.4 1.8-.5 3.1 0 .2.1.2.2.2h12.5c.1 0 .2-.1.2-.2-.1-1.2-.2-2.1-.3-2.7-.4-1.4-1.1-2.6-2.2-3.4-1.1-.9-2.4-1.3-4-1.3-1.5 0-2.8.4-3.8 1.2zm15.6 10.2c0 .4-.2.5-.5.5h-17.4c-.2 0-.2.1-.2.2 0 1.2.1 2.2.3 2.8.4 1.5 1.2 2.6 2.4 3.4 1.2.8 2.8 1.2 4.6 1.2 2.7 0 4.8-1.1 6.2-3.3.2-.4.4-.4.7-.2l3.1 2.1c.3.2.3.5.2.7-1 1.6-2.5 2.9-4.3 3.9-1.9.9-4 1.4-6.4 1.4-2.7 0-4.9-.6-6.7-1.8-1.8-1.2-3.2-2.8-4.1-5-.9-2.2-1.3-4.8-1.3-7.8 0-2.7.2-4.7.6-6.1.7-2.5 2-4.5 3.9-6 2-1.5 4.4-2.2 7.2-2.2 3.7 0 6.4.9 8.3 2.8 1.8 1.8 2.9 4.5 3.3 8.1.1 1.8.1 3.4.1 5.3z"/>         <path d="M77.7 186c-12.9 0-23.4-10.5-23.4-23.4 0-12.9 10.5-23.4 23.4-23.4s23.4 10.5 23.4 23.4c0 12.9-10.5 23.4-23.4 23.4m-67.1-58.8c0-12.9 10.5-23.4 23.4-23.4 12.9 0 23.4 10.5 23.4 23.4 0 12.9-10.5 23.4-23.4 23.4-12.9 0-23.4-10.5-23.4-23.4m.5-94c0-12.9 10.5-23.4 23.4-23.4 12.9 0 23.4 10.5 23.4 23.4S47.3 56.5 34.4 56.5c-12.8 0-23.3-10.5-23.3-23.3m77.4 46.9c0 12.9-10.5 23.4-23.4 23.4S41.7 93 41.7 80.1c0-12.9 10.5-23.4 23.4-23.4s23.4 10.5 23.4 23.4m-10.8 49.8c-4 0-7.8.8-11.4 2.1.2-1.6.4-3.1.4-4.7 0-5.2-1.3-10.1-3.4-14.5.6 0 1.2.1 1.8.1 18 0 32.7-14.7 32.7-32.7 0-18-14.7-32.7-32.7-32.7-.4 0-.8 0-1.3.1 2.1-4.3 3.3-9.2 3.3-14.3C67.1 15.3 52.4.6 34.4.6 16.4.6 1.7 15.3 1.7 33.3S16.4 66 34.4 66c.4 0 .8 0 1.3-.1-2.1 4.3-3.3 9.2-3.3 14.3 0 5.1 1.3 10.1 3.4 14.5-.6 0-1.2-.1-1.8-.1-18 0-32.7 14.7-32.7 32.7C1.3 145.3 16 160 34 160c4 0 7.8-.8 11.4-2.1-.2 1.6-.4 3.1-.4 4.7 0 18 14.7 32.7 32.7 32.7s32.7-14.7 32.7-32.7c0-18-14.6-32.7-32.7-32.7z" />         <path class="st6" d="M139.3 190v-62.3c0-33 23.6-54.9 58.7-54.9S256.4 94 256.4 126v.2c0 1.4-1 3.6-2.4 3.6h-18.3c-1.4 0-2.4-.5-2.4-1.4V127c0-20.5-14-34.2-35.4-34.2s-35.6 13.7-35.6 34.2v64c0 20.5 14.2 34.2 35.6 34.2 21.4 0 35.4-13.7 35.4-34.2v-.5c0-1.4 1-2.2 2.4-2.2H254c1.4 0 2.4 1.4 2.4 2.2v1.2c0 32-23.3 53.7-58.5 53.7s-58.6-22.2-58.6-55.4M310.2 95.7v53.9c0 .5.5 1 1 1h40.2c16.8 0 28.2-11.1 28.2-27.7s-11.3-28.2-28.2-28.2h-40.2c-.5 0-1 .5-1 1zm70.3 145.8-33.7-71.9c-.2-.5-.5-.7-1-.7h-34.7c-.5 0-1 .5-1 1v71c0 1.4-1 2.4-2.4 2.4h-18.3c-1.4 0-2.4-1-2.4-2.4V77.2c0-1.4 1-2.4 2.4-2.4h64.7c29.1 0 48.4 19.3 48.4 47.9 0 22.4-12.5 39-33.2 44.3-.5.2-.7.7-.5 1.2l34.9 72.2c.7 1.7 0 2.9-1.7 2.9h-19c-1.1-.1-2-.6-2.5-1.8zM434.1 240.8V77.2c0-1.4 1-2.4 2.4-2.4h18.3c1.4 0 2.4 1 2.4 2.4v163.6c0 1.4-1 2.4-2.4 2.4h-18.3c-1.5 0-2.4-.9-2.4-2.4"/>         <path class="st2" d="m692.7 215.2.1.1v1.4s0 .1-.1.1l-.1.1H690s-.1 0-.1.1v8.3s0 .1-.1.1l-.1.1H688c-.1 0-.1 0-.1-.1l-.1-.1V217s0-.1-.1-.1h-2.6c-.1 0-.1 0-.1-.1l-.1-.1v-1.4s0-.1.1-.1l.1-.1h7.4c.1.1.1.1.2.1M700.9 215.2h1.7s.1 0 .1.1l.1.1v10c0 .1 0 .1-.1.1l-.1.1h-1.7s-.1 0-.1-.1l-.1-.1v-6.6h-.1l-1.6 2.5c0 .1-.1.1-.2.1h-.8c-.1 0-.2 0-.2-.1l-1.6-2.5h-.1v6.6c0 .1 0 .1-.1.1l-.1.1h-1.7s-.1 0-.1-.1l-.1-.1v-10s0-.1.1-.1l.1-.1h1.7c.1 0 .2 0 .2.1l2.2 3.4c0 .1.1.1.1 0l2.2-3.4c.1-.1.2-.1.3-.1"/></g></svg>